<?xml version="1.0" standalone="no"?>
<!DOCTYPE svg PUBLIC "-//W3C//DTD SVG 20010904//EN"
 "http://www.w3.org/TR/2001/REC-SVG-20010904/DTD/svg10.dtd">
<svg version="1.0" xmlns="http://www.w3.org/2000/svg"
 width="300.000000pt" height="300.000000pt" viewBox="0 0 300.000000 300.000000"
 preserveAspectRatio="xMidYMid meet">

<g transform="translate(0.000000,300.000000) scale(0.100000,-0.100000)"
fill="#000000" stroke="none">
<path d="M1358 2481 l-138 -139 70 -72 70 -73 66 67 c37 36 70 66 74 66 10 0
270 -260 270 -269 0 -10 -260 -271 -270 -271 -4 0 -101 93 -214 206 l-206 207
-345 -345 c-190 -190 -345 -351 -345 -357 0 -7 250 -262 555 -567 l555 -556
561 561 561 561 -211 212 -210 212 -347 -347 c-190 -191 -350 -347 -354 -347
-9 0 -550 540 -550 549 0 3 29 36 65 74 l64 67 210 -211 211 -211 281 281 281
281 -280 280 c-154 154 -281 280 -283 280 -2 0 -66 -63 -141 -139z m-203
-1197 l345 -346 346 346 c191 190 350 346 354 346 10 0 130 -120 130 -130 0
-10 -820 -830 -830 -830 -4 0 -194 187 -422 415 l-415 415 61 64 c34 35 66 65
73 65 7 1 168 -155 358 -345z"/>
</g>
</svg>
