<?xml version="1.0" encoding="utf-8"?>
<!DOCTYPE svg PUBLIC "-//W3C//DTD SVG 1.0//EN" "http://www.w3.org/TR/2001/REC-SVG-20010904/DTD/svg10.dtd">
<svg version="1.0" xmlns="http://www.w3.org/2000/svg" width="500px" height="500px" viewBox="0 0 500 500" preserveAspectRatio="xMidYMid meet">
 <g fill="#fa7704">
  <path d="M94.5 280 l-30 -30 57.7 -57.7 c56.9 -56.9 60.9 -60.5 59.6 -53.7 -0.2 1.4 -1.4 2 -4.1 2.2 -3.4 0.3 -3.7 0.6 -3.7 3.4 0 2.3 -1.5 4.7 -6.3 10.2 -3.5 3.9 -8 9.3 -10 12 -3.5 4.6 -3.6 4.9 -2.2 7.7 0.8 1.5 1.5 5.3 1.5 8.4 0 5.9 0.2 6.2 4 4 2.6 -1.5 11 -2.1 11 -0.7 0 0.4 -3.6 4.3 -8 8.7 -4.4 4.4 -8 8.4 -8 8.9 0 0.6 1.9 2.8 4.3 4.8 l4.2 3.8 -6 -0.2 c-5.8 -0.2 -6.1 -0.1 -8.2 3.3 -1.2 1.9 -3.1 4.6 -4.2 6.1 -1.6 1.9 -2.1 4.1 -2.1 8.2 0 4.9 -1.1 7.2 -2.2 4.9 -0.2 -0.5 -2.2 -2.6 -4.6 -4.8 l-4.2 -3.9 -11.5 11.4 c-6.3 6.3 -11.5 12.1 -11.5 13 0 0.8 7.3 8.8 16.2 17.7 l16.3 16.3 -3.9 0 c-2.6 0 -5 -0.8 -7.2 -2.5 -4.3 -3.3 -7.7 -3.7 -8.2 -1 -0.3 1.1 -1.5 3 -2.8 4.2 -3.2 2.9 -3 4.3 1.2 11.8 2.6 4.7 3.4 7.4 3.2 10 l-0.3 3.5 -30 -30z"/>
 </g>
 <g fill="#eb6810">
  <path d="M135.4 320.7 c-11.1 -11.3 -13.6 -14.4 -17.2 -21.7 -3.8 -7.7 -4.1 -8.9 -3.3 -12.5 0.6 -2.1 1.9 -4.6 3 -5.5 1 -0.8 2.1 -2.4 2.3 -3.4 0.5 -3.2 3.2 -4.2 7.5 -2.7 2.1 0.7 4.5 1.9 5.3 2.7 0.8 0.7 2.9 2 4.5 2.8 1.7 0.9 9.2 7.8 16.8 15.3 l13.7 13.8 -3.5 0.3 c-2.3 0.2 -4.7 -0.4 -6.9 -1.7 -1.8 -1.2 -3.6 -2.1 -3.9 -2.1 -0.3 0 -0.9 1.7 -1.3 3.8 -0.4 2 -1.2 4.4 -1.9 5.2 -3 3.7 -3.5 5.7 -2 8.7 1.6 3 2 8.9 0.7 9.7 -0.5 0.3 -6.7 -5.4 -13.8 -12.7z"/>
  <path d="M156.3 248.7 c-13.1 -13 -14.4 -14.6 -15.7 -19.5 -1.3 -5.1 -1.2 -5.4 1 -8.5 1.3 -1.8 3.2 -4.8 4.3 -6.7 1 -1.9 2.9 -4.4 4 -5.4 1.9 -1.7 2.6 -1.8 5.5 -0.8 1.8 0.7 3.9 1.2 4.7 1.2 0.8 0 8.1 6.8 16.3 15 l14.8 15 -4.7 0 c-2.5 0 -5.5 -0.5 -6.5 -1 -2.6 -1.4 -9 5.1 -9 9.2 0 1.5 -0.4 2.8 -0.9 2.8 -0.6 0 -0.5 1.4 0 3.5 0.6 2 0.9 4.9 0.7 6.5 -0.3 2.7 -1 2.2 -14.5 -11.3z"/>
  <path d="M189.3 187.9 l-9.1 -9.2 -5.4 5 c-2.9 2.8 -5.9 4.8 -6.6 4.6 -0.6 -0.3 -3.3 0.7 -5.9 2.2 -2.8 1.5 -4.9 2.2 -5.1 1.6 -0.2 -0.6 -1 -1.1 -1.8 -1.1 -1 0 -1.4 -1.5 -1.4 -5.7 0 -3.8 -0.6 -6.8 -1.8 -8.8 -2.4 -3.9 -1.5 -8 2.9 -13.7 5.3 -7 15.9 -19 20.7 -23.7 l4.5 -4.3 16.6 16.7 16.6 16.6 -6.4 -0.3 c-6.3 -0.3 -6.5 -0.2 -7.2 2.5 -0.4 1.6 -1.2 3.4 -1.7 4 -0.5 0.7 -1.5 2.8 -2.1 4.8 -1 3.2 -0.9 4.1 0.9 7.2 1.4 2.3 2 4.9 1.8 7.2 l-0.3 3.5 -9.2 -9.1z"/>
  <path d="M211.4 116.9 l-6.9 -6.9 11.8 -11.8 c11.7 -11.7 11.7 -11.7 11.7 -8.3 0 2.8 -1.2 4.8 -7.2 11.4 -6.1 6.8 -6.9 8.1 -5.5 8.9 3.5 1.9 6.3 11.7 3.9 13.2 -0.5 0.3 -4 -2.6 -7.8 -6.5z"/>
 </g>
 <g fill="#dc5b1f">
  <path d="M158.4 343.8 c-7.9 -8 -12.1 -13.1 -12.2 -14.6 0 -1.2 -1 -3.4 -2.1 -4.8 -1.2 -1.5 -2.1 -3 -2.1 -3.3 0 -0.4 1.5 -2.9 3.4 -5.8 1.8 -2.8 3.6 -6.6 4 -8.6 1.6 -8.5 11.7 -4.1 28.4 12.6 l11.3 11.2 -4.7 0.5 c-4.4 0.5 -4.9 0.8 -5.8 3.8 -0.5 1.7 -1.3 3.2 -1.8 3.2 -1.3 0 -4.9 8.6 -5.7 13.6 l-0.6 4.4 -12.1 -12.2z"/>
  <path d="M180.9 273.3 c-11.4 -11.5 -13.3 -14.1 -14.7 -19.3 -0.6 -2.7 -0.2 -6.5 0.8 -6.8 0.6 -0.2 1 -1.6 1 -3.1 0 -1.8 1.4 -4.2 4.1 -7.1 l4.1 -4.4 4.8 1.7 c2.6 0.9 5.4 1.7 6.1 1.7 1.3 0 24.9 23.1 24.9 24.4 0 0.3 -1.7 0.6 -3.8 0.6 -3.2 0 -4.3 0.6 -7.3 4.3 -3.4 4 -6.6 12 -7.1 18 -0.3 2.6 -1.1 2 -12.9 -10z"/>
  <path d="M209.3 207.8 c-9.3 -9.4 -13 -13.8 -15.4 -18.6 -3.3 -6.9 -3.2 -8.1 1.1 -17.7 1 -2.2 2.1 -4.8 2.4 -5.7 0.3 -1 1.5 -1.8 2.6 -1.8 1.3 0 1.8 -0.4 1.4 -1.1 -0.3 -0.6 0.8 -0.4 2.4 0.5 1.7 0.9 3.9 1.6 4.9 1.6 1 0 7.7 5.9 14.8 13 l13 13 -5.3 0 c-6.1 0 -7.4 0.9 -9.2 6.5 -0.7 2.2 -1.6 4.4 -2.1 5 -1.3 1.4 -1.1 4.2 0.7 7.6 0.8 1.7 1.4 4.6 1.2 6.5 l-0.3 3.5 -12.2 -12.3z"/>
  <path d="M221.1 126.6 c-2.9 -3 -5.1 -5.8 -4.8 -6.3 0.7 -1.1 -2.9 -7.3 -4.1 -7.3 -0.5 0 -1.4 -1.1 -2 -2.5 -1.1 -2.3 -0.6 -3.1 6.6 -11.2 4.2 -4.9 13.4 -14.6 20.4 -21.8 l12.8 -13 11.2 11.3 11.3 11.3 -6 -0.3 -5.9 -0.3 -0.8 3.9 c-0.5 2.2 -1.5 4.7 -2.3 5.6 -1.1 1.2 -1.5 4 -1.5 9.9 l0 8.2 -2.6 -2 c-1.5 -1.2 -3.2 -2.1 -3.8 -2.1 -0.6 0 -6 5 -12.1 11 l-11 11 -5.4 -5.4z"/>
 </g>
 <g fill="#d0512b">
  <path d="M180.1 365.6 c-9.9 -9.9 -12.2 -12.8 -12.3 -15.2 0 -3.7 4 -14.4 5.7 -15.1 0.8 -0.2 1.7 -1.8 2 -3.4 0.8 -3.7 3.5 -5.2 7.9 -4.4 2.5 0.5 6.2 3.6 15.7 13.1 l12.4 12.4 -4 0 c-2.7 0 -4.9 0.8 -6.7 2.3 -3.4 2.8 -6.8 11.4 -6.8 17.2 0 2.4 -0.4 4.6 -0.8 4.9 -0.5 0.3 -6.3 -5 -13.1 -11.8z"/>
  <path d="M202.3 294.7 c-6.1 -6.1 -11.4 -12.1 -11.7 -13.2 -1 -3.5 3.6 -15 8.1 -20 3.8 -4.2 4.3 -4.5 7.9 -3.9 3.3 0.5 5.7 2.4 15.4 12 11.5 11.4 11.5 11.4 8.1 11.4 -3.4 0 -8.1 3.7 -8.1 6.4 0 0.6 -1.3 3.3 -2.9 5.9 -1.7 2.5 -3.5 6.4 -4.1 8.7 -0.6 2.2 -1.2 4 -1.3 4 -0.1 0 -5.2 -5.1 -11.4 -11.3z"/>
  <path d="M229.4 227.8 c-6.1 -6.2 -10.8 -12 -11.9 -14.6 -1.9 -4.3 -2.2 -11.6 -0.6 -13.6 0.4 -0.6 1.4 -2.9 2.1 -5 2.1 -6.4 3.8 -7.7 9.6 -7 4.5 0.5 5.5 1.1 13 8.6 4.7 4.6 8.7 7.8 9.3 7.4 1.9 -1.2 1.2 2.4 -0.9 4.6 -1.1 1.2 -2.7 4.2 -3.6 6.7 -0.8 2.5 -2.5 6.9 -3.6 9.6 -1.1 2.8 -2.3 6.9 -2.7 9.3 l-0.6 4.3 -10.1 -10.3z"/>
  <path d="M263.5 122 l-11 -11 0.2 -8.2 c0.2 -5.7 0.7 -8.6 1.8 -9.8 0.9 -1 1.9 -3.4 2.2 -5.4 0.6 -3.7 2.7 -5.7 5.4 -5.2 0.8 0.2 2.8 0.7 4.5 1.1 2.1 0.5 6.9 4.4 15 12.6 l11.9 11.9 -4.1 0 c-4.6 0 -6.7 1.7 -8.6 7.1 -0.6 1.8 -2 4.1 -3.1 4.9 -1.3 1.1 -2.1 3.4 -2.6 7.3 l-0.6 5.7 -11 -11z"/>
 </g>
 <g fill="#c44539">
  <path d="M205.8 391.2 l-15.6 -15.7 0.2 -5 c0.1 -2.7 0.9 -6.6 1.8 -8.6 0.9 -2 1.9 -4.5 2.2 -5.6 0.4 -1.2 2.2 -3.3 4.1 -4.8 6.1 -4.6 8 -3.5 26.1 14.6 14.2 14.2 15.6 15.9 13.1 15.9 -1.5 0 -3 0.7 -3.3 1.5 -0.4 0.8 -1.2 1.5 -1.9 1.5 -1.8 0 -7.5 13.5 -7.5 17.7 0 1.2 -0.8 2.7 -1.8 3.2 -1.6 0.8 -4.3 -1.5 -17.4 -14.7z"/>
  <path d="M228.5 320.8 l-17.7 -17.4 1.2 -4.2 c0.6 -2.4 2.4 -6.4 4.1 -8.9 1.6 -2.6 2.9 -5.3 2.9 -5.9 0 -2.8 4.7 -6.4 8.1 -6.4 3 0 4.6 1.2 12.8 9.5 5.1 5.2 9.6 9.5 9.9 9.5 0.4 0 2.7 -2.1 5.3 -4.6 l4.6 -4.6 0.7 5.4 c1 7.8 -0.8 15 -6.4 26.1 -3 5.9 -5 11.2 -5 13.2 0 1.8 -0.6 3.8 -1.4 4.4 -1.1 0.9 -4.8 -2.2 -19.1 -16.1z"/>
  <path d="M243.3 241.8 c-7.4 -7.6 -8.3 -10.7 -4.8 -17.1 1.3 -2.3 2.9 -6.2 3.5 -8.7 1.6 -6.1 5 -12 6.9 -12 1.7 0 48.1 -45.8 48.1 -47.5 0 -0.5 -5.6 -6.6 -12.4 -13.5 -11.5 -11.5 -12.5 -12.8 -12.7 -16.5 -0.3 -4.4 1.2 -8.9 3.4 -10.2 0.8 -0.4 1.9 -2.4 2.6 -4.3 2 -6.1 4.4 -8.1 8.8 -7.4 3.3 0.5 5.9 2.7 19.8 16.5 14.2 14.2 15.7 16 13.8 16.5 -1.3 0.4 -2.3 1.3 -2.3 2 0 0.8 -0.6 1.4 -1.2 1.4 -0.7 0 -2.2 1.9 -3.2 4.3 -4.3 9.5 -6.6 15.3 -6.6 16.2 0 0.6 -0.6 1.7 -1.2 2.3 -1.6 1.6 -3.6 9.3 -5.1 19.1 -1 7.2 -1 7.4 1.3 9.3 l2.4 1.9 -27 27 c-14.8 14.8 -27.1 26.9 -27.4 26.9 -0.3 0 -3.3 -2.8 -6.7 -6.2z"/>
 </g>
 <g fill="#b23549">
  <path d="M234 419.5 c-13.4 -13.5 -15.3 -15.7 -13.7 -16.6 0.9 -0.6 1.5 -1.5 1.1 -2 -0.3 -0.6 0.2 -2.9 1.1 -5.2 1 -2.3 2.7 -6.3 3.8 -8.9 1.1 -2.7 2.6 -4.8 3.3 -4.8 0.7 0 1.6 -0.9 1.9 -2.1 1.1 -3.4 5.2 -1.5 12.2 5.4 l6.3 6.1 16.2 -16.3 16.3 -16.4 0.3 12.7 c0.1 7 -0.1 14.2 -0.5 15.9 -1.4 5.2 -0.5 8.2 2.5 9.3 2.7 1 2.5 1.2 -15.7 19.7 -10.2 10.3 -18.7 18.7 -19.1 18.7 -0.3 0 -7.5 -7 -16 -15.5z"/>
  <path d="M246.6 338.5 c-1.5 -1.9 -2.4 -4 -2 -4.7 0.4 -0.6 0.8 -2.5 1 -4.2 0.1 -1.7 2.6 -7.8 5.5 -13.5 2.9 -5.7 5.3 -11.8 5.4 -13.6 0.1 -1.8 0.5 -3.7 0.9 -4.4 0.4 -0.6 0.3 -1.1 -0.3 -1.1 -0.6 0 -0.8 -1.3 -0.5 -3.2 0.5 -2.7 7.7 -10.4 36.8 -39.5 19.8 -20 36.4 -36.3 36.7 -36.3 0.8 0 0.3 26.3 -0.6 32.8 -0.8 5.1 -0.8 5.2 1.9 5.2 1.4 0 2.6 0.5 2.6 1 0 1 -83.3 85 -84.3 85 -0.3 0 -1.7 -1.6 -3.1 -3.5z"/>
  <path d="M299.1 195.3 c-1.5 -1 -2.1 -1.1 -1.6 -0.3 0.5 0.8 0.4 1.1 -0.2 0.7 -1.2 -0.7 -0.8 -12.6 0.6 -18.7 2.4 -10.8 3.7 -15 4.9 -16.2 0.6 -0.6 1.2 -1.7 1.2 -2.3 0 -0.9 2.3 -6.7 6.6 -16.2 1 -2.4 2.5 -4.3 3.2 -4.3 0.6 0 1.1 -0.3 1.1 -0.8 -0.3 -2 0.3 -2.7 2.5 -2.8 1.8 -0.1 5.1 2.6 13.5 11 l11.1 11.1 -20.3 20.3 -20.2 20.2 -2.4 -1.7z"/>
 </g>
 <g fill="#a0245c">
  <path d="M282 399.6 c-3 -1.2 -4.1 -2.7 -3.5 -4.3 0.2 -0.6 -0.1 -1.3 -0.6 -1.5 -0.7 -0.2 -0.5 -2.6 0.6 -6.7 1.1 -4.5 1.5 -8.9 1.2 -14.4 -0.3 -4.4 -0.2 -9 0.3 -10.1 0.4 -1.2 16.5 -17.8 35.6 -37 33.6 -33.5 34.9 -34.7 35.2 -31.7 0.2 1.9 -0.5 4.5 -1.7 6.5 -1.6 2.5 -2.1 5 -2.1 10.2 0 3.8 -0.7 9.4 -1.5 12.4 -2 7.3 -1.9 8 0.9 8 1.6 0 2.6 0.7 3 2.3 0.5 1.9 -4.2 6.9 -32.2 34.8 -31 30.8 -32.9 32.5 -35.2 31.5z"/>
  <path d="M328.8 259.2 c-2.3 -0.3 -2.6 -0.8 -3 -5 -0.2 -2.6 0.2 -6.8 1 -9.4 0.8 -3 1 -5.4 0.4 -6.5 -0.7 -1.5 -0.7 -4.8 0.1 -16.5 0.1 -0.9 8.9 -10.5 19.7 -21.2 l19.6 -19.5 11.4 11.4 c6.3 6.3 10.9 11.5 10.2 11.5 -0.6 0 -1.2 1.1 -1.2 2.5 0 1.4 -0.5 2.5 -1.1 2.5 -0.7 0 -1.8 0.8 -2.6 1.8 -2.1 2.6 -7.3 13.3 -7.3 15.1 -0.1 0.9 -0.6 2.6 -1.3 3.9 l-1.3 2.2 -2.9 -3 c-1.6 -1.6 -3.3 -3 -3.7 -3 -0.5 0 -8.5 7.5 -17.9 16.8 -9.4 9.2 -17.1 16.7 -17.2 16.7 -0.1 0 -1.4 -0.1 -2.9 -0.3z"/>
 </g>
 <g fill="#8f116a">
  <path d="M346.3 337.3 c-0.7 -0.2 -0.9 -1.2 -0.6 -2.1 0.6 -1.6 0.5 -1.6 -1.3 -0.1 -3.2 2.7 -4.4 1.3 -3.8 -4.4 0.3 -2.9 1.2 -7.7 2 -10.8 1.6 -6.7 1.8 -10.9 0.4 -10.9 -0.6 0 -0.8 -1 -0.5 -2.3 0.4 -1.3 0.7 -3 0.8 -3.8 0.7 -4.2 8.3 -13.3 26.1 -30.9 10.8 -10.7 19.9 -20.3 20.2 -21.4 0.5 -1.4 -1.7 -4.2 -9.1 -11.6 -7.7 -7.7 -9.6 -10.2 -9.1 -11.7 0.4 -1 1 -2.7 1.2 -3.8 0.4 -2.5 5.8 -13.3 7.7 -15.7 0.8 -1 1.9 -1.8 2.6 -1.8 0.6 0 1 -0.3 1 -0.8 -0.4 -2.2 0.3 -4.2 1.4 -4.2 0.6 0 12.2 11 25.7 24.5 l24.5 24.5 -44 43.9 c-24.2 24.1 -44.5 43.7 -45.2 43.4z"/>
 </g>
</svg>